<?xml version="1.0" standalone="no"?>
<!DOCTYPE svg PUBLIC "-//W3C//DTD SVG 1.1//EN" "http://www.w3.org/Graphics/SVG/1.1/DTD/svg11.dtd" >
<svg xmlns="http://www.w3.org/2000/svg">
  <metadata>Created by iconfont</metadata>
  <defs>
  <font id="iconfont" horiz-adv-x="1024">
    <font-face
      font-family="iconfont"
      font-weight="400"
      font-stretch="normal"
      units-per-em="1024"
      ascent="896"
      descent="-128"
    />
      <missing-glyph />
      
      <glyph glyph-name="icon-huifu" unicode="&#58943;" d="M512.796444 893.496889C229.831111 893.496889 0.341333 689.607111 0.341333 438.044444c0-147.797333 72.135111-279.153778 194.844445-362.382222 0.682667-0.512-12.629333-201.102222-12.629334-201.102222l205.994667 120.263111c37.774222-7.907556 80.440889-12.344889 120.945778-12.344889 283.022222 0 514.161778 203.946667 514.161778 455.566222 0 251.619556-227.783111 455.509333-510.862223 455.509334zM263.452444 372.053333a63.943111 63.943111 0 1 0 0 127.943111 63.943111 63.943111 0 0 0 0-127.943111zM512 372.053333a63.943111 63.943111 0 1 0 0 127.943111 63.943111 63.943111 0 0 0 0-127.943111z m248.490667 0a63.943111 63.943111 0 1 0 0 127.943111 63.943111 63.943111 0 0 0 0-127.943111z"  horiz-adv-x="1024" />
      
      <glyph glyph-name="icon-simihuati-da" unicode="&#58944;" d="M653.653333 429.8752a42.666667 42.666667 0 0 0-30.139733 52.224l54.135467 202.069333a42.666667 42.666667 0 1 0 82.432-22.084266l-17.373867-64.750934h67.959467a42.666667 42.666667 0 1 0 0-85.333333h-85.333334c-1.809067 0-3.618133 0.1024-5.393066 0.341333l-13.994667-52.292266a42.666667 42.666667 0 0 0-52.258133-30.173867zM267.093333 107.144533a42.666667 42.666667 0 0 1 82.397867-22.084266L383.829333 213.333333H512a42.666667 42.666667 0 0 1 0 85.333334h-105.301333l57.173333 213.333333h90.794667a42.666667 42.666667 0 0 1 0 85.333333h-67.925334l17.339734 64.682667a42.666667 42.666667 0 0 1-82.432 22.084267l-23.2448-86.766934H213.333333a42.666667 42.666667 0 1 1 0-85.333333h162.2016L318.3616 298.666667H213.333333a42.666667 42.666667 0 1 1 0-85.333334h82.158934l-28.433067-106.1888z m571.050667 144.861867V292.522667A90.897067 90.897067 0 0 1 746.9056 384a90.897067 90.897067 0 0 1-91.204267-91.4432v-40.5504h-20.138666a20.2752 20.2752 0 0 1-20.138667-20.138667v-162.474666c0-11.0592 9.1136-20.1728 20.138667-20.1728h222.72c11.264 0 20.411733 9.1136 20.411733 20.138666v162.474667a20.343467 20.343467 0 0 1-20.411733 20.138667h-20.138667z m-151.893333 40.5504c0 33.5872 27.3408 60.962133 60.689066 60.962133a60.962133 60.962133 0 0 0 60.757334-60.962133v-40.5504h-121.4464V292.522667z"  horiz-adv-x="1024" />
      
      <glyph glyph-name="icon-xitongshezhi" unicode="&#58937;" d="M728.618667 94.122667a85.333333 85.333333 0 0 0-73.898667-42.666667h-285.44a85.333333 85.333333 0 0 0-73.898667 42.666667L152.618667 341.333333a85.333333 85.333333 0 0 0 0 85.333334l142.762666 247.210666a85.333333 85.333333 0 0 0 73.898667 42.666667h285.44a85.333333 85.333333 0 0 0 73.898667-42.666667L871.381333 426.666667a85.333333 85.333333 0 0 0 0-85.333334l-142.762666-247.210666zM512 256a128 128 0 1 1 0 256 128 128 0 0 1 0-256z"  horiz-adv-x="1024" />
      
      <glyph glyph-name="icon-xiaoxiduidie" unicode="&#58938;" d="M536.576 669.4912l-24.576 20.48-24.576-20.48-307.2-256a38.4 38.4 0 1 1 49.152-58.9824l282.624 235.52 282.624-235.52a38.4 38.4 0 1 1 49.152 58.9824l-307.2 256z m0-256l-24.576 20.48-24.576-20.48-307.2-256a38.4 38.4 0 1 1 49.152-58.9824l282.624 235.52 282.624-235.52a38.4 38.4 0 1 1 49.152 58.9824l-307.2 256z"  horiz-adv-x="1024" />
      
      <glyph glyph-name="icon-xiaoxitixing" unicode="&#58939;" d="M799.8976 214.6816a34.7648 34.7648 0 0 0 20.6848-5.5808 87.5008 87.5008 0 0 0-40.2944 73.8816V456.4992c0 127.0784-91.904 233.216-214.6816 259.2768v6.2464a58.4704 58.4704 0 1 1-116.992 0v-6.2464c-122.8288-26.112-214.7328-132.096-214.7328-259.2768v-173.5168c0-31.0784-16.0768-58.2656-40.2944-73.8816a34.304 34.304 0 0 0 20.736 5.632 38.9632 38.9632 0 0 1 0.1024-78.0288h585.2672a38.912 38.912 0 1 1 0.2048 78.0288zM507.1872 0a97.5872 97.5872 0 0 1 97.5872 97.5872H409.6c0-53.9136 43.6224-97.5872 97.5872-97.5872z"  horiz-adv-x="1024" />
      
      <glyph glyph-name="icon-yinyongguanbi" unicode="&#58940;" d="M512-128A512 512 0 1 1 512 896a512 512 0 0 1 0-1024z m179.776 755.456a42.752 42.752 0 0 0 60.416-60.48l-174.72-174.72 188.16-188.032a42.752 42.752 0 1 0-60.48-60.48L517.056 331.84 328.96 143.744a42.752 42.752 0 1 0-60.416 60.48L456.576 392.32 281.92 566.976a42.752 42.752 0 0 0 60.48 60.48l174.72-174.72 174.656 174.72z"  horiz-adv-x="1024" />
      
      <glyph glyph-name="icon-xingqiubiaoqing" unicode="&#58941;" d="M838.765714 446.500571c103.533714-4.754286 176.786286-26.916571 184.612572-72.118857l-0.256 0.182857c9.618286-54.308571-80.310857-110.153143-209.846857-155.757714a367.725714 367.725714 0 0 0-156.891429-171.629714 357.193143 357.193143 0 0 0-243.529143-38.107429l-137.069714-71.058285-28.745143 152.210285c-9.728 8.557714-19.017143 17.554286-27.867429 27.062857C97.865143 118.491429 9.142857 140.397714 0.731429 190.500571c-7.131429 41.106286 42.825143 83.090286 123.721142 120.466286a375.442286 375.442286 0 0 0 71.753143 289.097143 363.044571 363.044571 0 0 0 198.034286 131.547429c39.643429 8.777143 19.090286 76.653714 19.090286 76.653714 53.979429-10.386286 68.096-44.397714 71.68-60.342857 0.329143-1.462857 1.133714-2.742857 2.304-3.657143 1.097143-0.987429 2.56-1.499429 4.022857-1.536 6.473143-0.292571 6.473143 4.608 6.473143 11.264 0 9.691429-1.828571 19.273143-5.412572 28.233143 9.545143-1.609143 18.505143-5.888 25.782857-12.397715 7.314286-6.473143 12.690286-14.921143 15.579429-24.356571 0.438857-1.974857 1.462857-3.766857 2.925714-5.12a9.874286 9.874286 0 0 1 5.266286-2.596571 360.923429 360.923429 0 0 0 192.804571-98.596572 372.736 372.736 0 0 0 104.045715-192.658286zM306.907429 120.905143c8.192-10.422857 14.811429-22.052571 19.638857-34.486857 3.254857 12.580571 8.192 24.612571 14.628571 35.766857 8.411429 14.811429 19.748571 27.684571 33.28 37.851428a1895.424 1895.424 0 0 1 154.989714 21.650286c291.657143 52.297143 467.456 145.444571 460.324572 186.477714-3.584 20.955429-56.32 38.034286-145.700572 42.788572 1.718857-16.457143 2.340571-32.987429 1.828572-49.517714-0.548571-20.918857-2.852571-41.691429-6.948572-62.171429-31.012571-12.251429-66.377143-24.429714-105.691428-36.132571a29.878857 29.878857 0 0 0 17.371428 18.907428 112.896 112.896 0 0 1 56.795429 48.347429c13.019429 22.162286 18.285714 48.201143 14.994286 73.837714-8.301714 56.027429-59.428571 97.938286-118.272 96.877714a121.6 121.6 0 0 1-85.357715-36.498285 30.500571 30.500571 0 0 0-39.021714-3.291429 120.941714 120.941714 0 0 1-90.112 21.577143c-58.258286-8.886857-101.814857-58.770286-100.827428-115.419429a115.931429 115.931429 0 0 1 26.660571-70.582857c16.457143-19.785143 39.021714-33.28 64-38.290286a29.257143 29.257143 0 0 0 21.76-18.651428c3.401143-9.984 9.033143-19.017143 16.457143-26.368-52.882286-9.142857-102.326857-15.725714-148.041143-20.077714a131.072 131.072 0 0 0-53.467429 64.658285 129.389714 129.389714 0 0 0-44.507428-71.058285c-38.765714-1.243429-73.581714-0.621714-103.716572 1.426285a371.821714 371.821714 0 0 0-35.620571 87.917715c-66.084571-31.890286-100.754286-61.257143-97.536-79.908572 4.278857-27.172571 91.867429-47.908571 235.154286-43.52 14.262857-8.082286 26.843429-19.017143 36.937143-32.109714z m437.833142 207.140571a47.469714 47.469714 0 0 1-5.705142 59.099429 45.458286 45.458286 0 0 1-57.929143 5.851428c-7.570286-5.156571-13.458286-12.470857-16.932572-21.028571a47.652571 47.652571 0 0 1 9.947429-50.980571 45.092571 45.092571 0 0 1 50.029714-10.130286c8.411429 3.510857 15.542857 9.508571 20.589714 17.188571z m-170.422857-13.750857a47.469714 47.469714 0 0 1-5.705143 59.062857 45.458286 45.458286 0 0 1-57.929142 5.851429c-7.570286-5.156571-13.458286-12.434286-16.932572-21.028572a47.652571 47.652571 0 0 1 9.947429-50.980571 45.092571 45.092571 0 0 1 50.029714-10.130286c8.411429 3.510857 15.542857 9.508571 20.589714 17.188572z"  horiz-adv-x="1024" />
      
      <glyph glyph-name="icon-shangchuanwenjian" unicode="&#58942;" d="M229.7856 815.9744h587.4688c34.56 0 51.8656-22.3744 51.8656-51.8144v-529.92c0-34.56-23.04-57.6-57.6-57.6h-97.8944c-28.8256 0-57.6512-28.8256-57.6512-57.6v-120.9856c0-34.5088-23.04-57.6-57.5488-57.6h-368.64c-28.8256 0-57.6 28.8256-57.6 57.6V758.3744c0 34.56 23.04 57.6512 57.6 57.6512z m368.64-501.0944c17.2544 0 28.7744 11.52 28.7744 28.8256 0 23.04-11.52 34.56-28.8256 34.56H339.2c-17.2544 0-28.7744-11.5712-28.7744-28.8256v-5.7344c0-17.3056 11.52-28.8256 28.7744-28.8256h259.2256z m126.6688 155.4944c17.3056 0 28.8256 11.5712 28.8256 28.8256 0 23.04-11.52 34.56-34.56 34.56H333.4656c-17.3056 0-28.8256-11.52-28.8256-28.8256v-5.7344c0-11.52 4.352-28.8256 34.56-28.8256h385.8944z m0 155.5456c17.3056 0 28.8256 11.52 28.8256 28.8256 0 23.04-11.52 34.56-28.8256 34.56H339.2c-17.2544 0-28.7744-11.5712-28.7744-28.8256v-5.7856c0-17.2544 11.52-28.7744 28.7744-28.7744h385.8944zM696.32-1.9456v80.64c0 34.56 28.8256 63.3856 63.3856 63.3856h80.64c28.7744 0 40.2944-34.56 23.04-51.8656l-115.2-115.2c-17.3056-17.2544-51.8656-5.7344-51.8656 23.04z"  horiz-adv-x="1024" />
      
      <glyph glyph-name="icon-biaoqing" unicode="&#58918;" d="M512-128c282.752 0 512 229.248 512 512S794.752 896 512 896 0 666.752 0 384s229.248-512 512-512zM341.333333 426.666667a85.333333 85.333333 0 1 0 0 170.666666 85.333333 85.333333 0 0 0 0-170.666666z m426.666667 85.333333a85.333333 85.333333 0 1 0-170.666667 0 85.333333 85.333333 0 0 0 170.666667 0z m-19.498667-311.296A256 256 0 0 0 256 298.666667h512a256 256 0 0 0-19.498667-97.962667z"  horiz-adv-x="1024" />
      
      <glyph glyph-name="icon-guanbi-da" unicode="&#58919;" d="M817.056 690.56l-0.96 0.928a42.464 42.464 0 0 1-60.192 0l-243.936-244.864L268.064 691.52a42.464 42.464 0 0 1-60.224 0l-0.96-0.96a42.88 42.88 0 0 1 0-60.448l243.936-244.864-246.336-247.264a42.88 42.88 0 0 1 0-60.48l0.96-0.96c16.608-16.672 43.552-16.672 60.192 0L512 323.84l246.368-247.296c16.64-16.704 43.584-16.704 60.224 0l0.96 0.96a42.88 42.88 0 0 1 0 60.448l-246.4 247.264 243.936 244.864a42.88 42.88 0 0 1 0 60.48z"  horiz-adv-x="1024" />
      
      <glyph glyph-name="icon-gerenziliao" unicode="&#58920;" d="M347.264 527.616a173.824 173.824 0 1 0 321.194667 133.077333A173.824 173.824 0 0 0 347.306667 527.616z m-142.336-400.341333c0 151.893333 135.637333 243.285333 302.933333 243.285333 167.253333 0 302.976-91.434667 302.976-243.285333 0-151.893333-605.909333-151.893333-605.909333 0z"  horiz-adv-x="1024" />
      
      <glyph glyph-name="icon-qiehuanjiantou" unicode="&#58921;" d="M615.45931 16.772414L301.515034 333.453241a74.151724 74.151724 0 0 0 0.459035 104.871725L618.619586 752.286897c46.909793 46.521379 126.640552 13.100138 126.358069-52.965518l-2.701241-630.642758c-0.282483-66.065655-80.295724-98.816-126.799448-51.906207z"  horiz-adv-x="1024" />
      
      <glyph glyph-name="icon-chengyuan" unicode="&#58922;" d="M738.889143 62.793143c0-169.325714-675.474286-169.325714-675.474286 0s151.186286 271.213714 337.700572 271.213714 337.773714-101.924571 337.773714-271.213714zM644.754286 832.512c-47.213714 0-90.404571-16.896-124.013715-44.909714a225.389714 225.389714 0 0 0 127.378286-202.898286c0-50.834286-16.969143-97.499429-45.275428-135.204571a193.828571 193.828571 0 1 1 41.910857 383.012571zM207.323429 583.314286a193.828571 193.828571 0 1 0 387.584 0 193.828571 193.828571 0 0 0-387.620572 0z m311.076571-216.612572c21.101714 9.984 83.785143 16.091429 104.228571 16.091429 186.477714 0 337.773714-81.078857 337.664-256.512 0-62.390857-85.394286-102.582857-195.474285-120.576 18.285714 19.712 28.672 42.313143 28.672 67.913143 0 163.766857-143.286857 266.276571-275.090286 293.083428z"  horiz-adv-x="1024" />
      
      <glyph glyph-name="icon-guanbi-xiao" unicode="&#58923;" d="M817.066667 690.56l-0.938667 0.938667a42.453333 42.453333 0 0 1-60.245333 0L512 446.72 268.117333 691.498667a42.453333 42.453333 0 0 1-60.245333 0l-0.938667-0.938667a42.88 42.88 0 0 1 0-60.458667l243.882667-244.821333-246.357333-247.296a42.88 42.88 0 0 1 0-60.501333l0.938666-0.938667a42.453333 42.453333 0 0 1 60.245334 0L512 323.882667l246.357333-247.338667a42.453333 42.453333 0 0 1 60.245334 0l0.938666 0.981333c16.64 16.64 16.64 43.733333 0 60.416l-246.4 247.338667 243.925334 244.821333c16.64 16.682667 16.64 43.776 0 60.458667z"  horiz-adv-x="1024" />
      
      <glyph glyph-name="icon-gengduo" unicode="&#58924;" d="M256 384a102.4 102.4 0 1 1-204.8 0 102.4 102.4 0 0 1 204.8 0z m358.4 0a102.4 102.4 0 1 0-204.8 0 102.4 102.4 0 0 0 204.8 0z m256-102.4a102.4 102.4 0 1 1 0 204.8 102.4 102.4 0 0 1 0-204.8z"  horiz-adv-x="1024" />
      
      <glyph glyph-name="icon-tianjiafenzu" unicode="&#58925;" d="M551.384615 777.846154V423.384615h354.461539a39.384615 39.384615 0 0 0 0-78.76923H551.384615v-354.461539a39.384615 39.384615 0 0 0-78.76923 0V344.615385H118.153846a39.384615 39.384615 0 0 0 0 78.76923H472.615385V777.846154a39.384615 39.384615 0 0 0 78.76923 0z"  horiz-adv-x="1024" />
      
      <glyph glyph-name="icon-chengyuanguanli" unicode="&#58926;" d="M295.168 665.4976a218.368 218.368 0 1 1 436.736 0 218.368 218.368 0 0 1-436.736 0zM488.448-63.8464c-181.504 4.0448-355.328 51.6608-355.328 142.848 0 190.72 170.3424 305.5616 380.5184 305.5616 68.096 0 132.096-12.0832 187.4432-34.8672l-187.4944-108.288a51.2 51.2 0 0 1-25.6-44.3392v-253.8496a51.2 51.2 0 0 1 0.512-7.0656z m244.992 306.9952a51.2 51.2 0 0 0 51.2 0l111.4112-64.3072a51.2 51.2 0 0 0 25.6-44.3904v-128.6656a51.2 51.2 0 0 0-25.6-44.3392l-111.4112-64.3072a51.2 51.2 0 0 0-51.2 0l-111.4624 64.3072a51.2 51.2 0 0 0-25.6 44.3392v128.7168a51.2 51.2 0 0 0 25.6 44.3392l111.4624 64.3072z m88.1664-173.0048a62.6176 62.6176 0 1 1-125.184 0 62.6176 62.6176 0 0 1 125.184 0z"  horiz-adv-x="1024" />
      
      <glyph glyph-name="icon-chuangjianfenzu" unicode="&#58927;" d="M307.2 665.6A76.8 76.8 0 0 1 384 588.8h460.8a76.8 76.8 0 0 1 0 153.6h-460.8A76.8 76.8 0 0 1 307.2 665.6z m0-307.2A76.8 76.8 0 0 0 384 435.2h460.8a76.8 76.8 0 0 0 0-153.6h-460.8A76.8 76.8 0 0 0 307.2 358.4zM179.2 128a76.8 76.8 0 0 1 0-153.6h665.6a76.8 76.8 0 0 1 0 153.6h-665.6zM256 665.6a76.8 76.8 0 1 0-153.6 0 76.8 76.8 0 0 0 153.6 0zM179.2 281.6a76.8 76.8 0 1 1 0 153.6 76.8 76.8 0 0 1 0-153.6z"  horiz-adv-x="1024" />
      
      <glyph glyph-name="icon-guanbi" unicode="&#58928;" d="M967.111111 384c0-251.363556-203.747556-455.111111-455.111111-455.111111S56.888889 132.636444 56.888889 384 260.636444 839.111111 512 839.111111s455.111111-203.747556 455.111111-455.111111z m56.888889 0c0 282.766222-229.233778 512-512 512S0 666.766222 0 384s229.233778-512 512-512 512 229.233778 512 512z m-392.760889 162.332444l-116.195555-116.224-116.224 116.224a28.444444 28.444444 0 0 1-40.220445-40.220444l116.195556-116.224-125.155556-125.155556a28.444444 28.444444 0 0 1 40.248889-40.220444l125.155556 125.155556 125.155555-125.155556a28.444444 28.444444 0 0 1 40.192 40.248889l-125.155555 125.155555 116.252444 116.195556a28.444444 28.444444 0 0 1-40.248889 40.220444z"  horiz-adv-x="1024" />
      
      <glyph glyph-name="icon-tianjia" unicode="&#58929;" d="M1024 384c0-282.752-229.248-512-512-512S0 101.248 0 384 229.248 896 512 896s512-229.248 512-512zM256 384a42.666667 42.666667 0 0 1 42.666667-42.666667h170.666666v-170.666666a42.666667 42.666667 0 1 1 85.333334 0v170.666666h170.666666a42.666667 42.666667 0 1 1 0 85.333334h-170.666666V597.333333a42.666667 42.666667 0 1 1-85.333334 0v-170.666666H298.666667a42.666667 42.666667 0 0 1-42.666667-42.666667z"  horiz-adv-x="1024" />
      
      <glyph glyph-name="icon-huati-da" unicode="&#58930;" d="M297.198933 54.8864a42.666667 42.666667 0 0 1 52.258134 30.173867L383.829333 213.333333h167.662934l-28.4672-106.154666a42.666667 42.666667 0 0 1 82.432-22.1184L639.829333 213.333333h170.837334a42.666667 42.666667 0 1 1 0 85.333334h-147.968l57.2416 213.674666c1.774933-0.238933 3.584-0.341333 5.393066-0.341333h85.333334a42.666667 42.666667 0 1 1 0 85.333333h-67.925334l17.339734 64.7168a42.666667 42.666667 0 0 1-82.432 22.084267L574.3616 298.666667h-167.662933l57.173333 213.333333h90.794667a42.666667 42.666667 0 1 1 0 85.333333h-67.925334l17.339734 64.7168a42.666667 42.666667 0 0 1-82.432 22.084267l-23.2448-86.801067H213.333333a42.666667 42.666667 0 1 1 0-85.333333h162.2016L318.3616 298.666667H213.333333a42.666667 42.666667 0 1 1 0-85.333334h82.158934l-28.433067-106.154666a42.666667 42.666667 0 0 1 30.139733-52.292267z"  horiz-adv-x="1024" />
      
      <glyph glyph-name="icon-xialajiantou" unicode="&#58931;" d="M512 153.002667l371.541333 371.456a42.666667 42.666667 0 0 1-60.416 60.416L512 273.664 200.874667 584.874667a42.666667 42.666667 0 1 1-60.416-60.416L512 153.002667z"  horiz-adv-x="1024" />
      
      <glyph glyph-name="icon-huati-xiao" unicode="&#58932;" d="M297.216 54.912a42.666667 42.666667 0 0 1 52.266667 30.165333L383.829333 213.333333h167.68l-28.458666-106.197333a42.666667 42.666667 0 0 1 82.432-22.058667L639.829333 213.333333H810.666667a42.666667 42.666667 0 1 1 0 85.333334h-147.968l57.258666 213.674666c1.749333-0.213333 3.541333-0.341333 5.376-0.341333h85.333334a42.666667 42.666667 0 1 1 0 85.333333h-67.925334l17.322667 64.725334a42.666667 42.666667 0 1 1-82.432 22.058666L574.378667 298.666667h-167.68l57.173333 213.333333H554.666667a42.666667 42.666667 0 1 1 0 85.333333h-67.925334l17.322667 64.725334a42.666667 42.666667 0 1 1-82.432 22.058666L398.378667 597.333333H213.333333a42.666667 42.666667 0 0 1 0-85.333333h162.176l-57.173333-213.333333H213.333333a42.666667 42.666667 0 1 1 0-85.333334h82.176l-28.458666-106.197333a42.666667 42.666667 0 0 1 30.165333-52.224z"  horiz-adv-x="1024" />
      
      <glyph glyph-name="icon-yaoqinghaoyou" unicode="&#58933;" d="M614.4 614.4a179.2 179.2 0 1 0-358.4 0 179.2 179.2 0 0 0 358.4 0z m-191.1808-256.1024a5262.848 5262.848 0 0 0 60.5184 0c69.0688-0.4096 127.6928-16.6912 175.2064-45.9264a234.1376 234.1376 0 0 1-115.6096-334.336H129.8432A27.4432 27.4432 0 0 0 102.4 5.4784c0 207.2576 113.5616 351.5904 320.8192 352.8192zM742.4-76.8a179.2 179.2 0 1 1 0 358.4 179.2 179.2 0 0 1 0-358.4z m-102.4 204.8H716.8v76.8a25.6 25.6 0 0 0 51.2 0V128h76.8a25.6 25.6 0 0 0 0-51.2H768v-76.8a25.6 25.6 0 0 0-51.2 0V76.8h-76.8a25.6 25.6 0 0 0 0 51.2z"  horiz-adv-x="1024" />
      
      <glyph glyph-name="icon-shangchuantupian" unicode="&#58934;" d="M102.4 686.6944v-605.3888c0-30.72 24.6784-55.7056 55.04-55.7056h709.12c30.3616 0 55.04 24.9856 55.04 55.7056V686.6944C921.6 717.4144 896.9216 742.4 866.56 742.4H157.44C127.0784 742.4 102.4 717.5168 102.4 686.6944z m312.9856-42.7008c49.664 0 89.9072-40.704 89.9072-90.9312 0-50.176-40.2432-90.9824-89.9072-90.9824-49.6128 0-89.9072 40.7552-89.9072 90.9824 0 50.176 40.2944 90.9312 89.9072 90.9312z m404.3776-505.856H204.3392a18.5344 18.5344 0 0 0-15.872 27.904l73.1136 176.3328a73.0112 73.0112 0 0 0 127.1296 0l33.8432-59.392a36.5056 36.5056 0 0 1 64.8704 2.5088l110.2848 232.3968a54.784 54.784 0 0 0 99.2256-0.1024l139.3664-353.0752a18.5344 18.5344 0 0 0-16.5376-26.5216z"  horiz-adv-x="1024" />
      
      <glyph glyph-name="icon-tuichudenglu" unicode="&#58935;" d="M704.298667 96H272.213333c-28.458667 0-36.906667 4.522667-41.216 13.994667-5.930667 12.970667-7.381333 32.085333-6.912 83.797333 0.128 10.666667 0.128 15.786667 0.128 22.186667V552.064l-0.128 22.186667c-0.426667 51.712 0.981333 70.826667 6.826667 83.754666 4.394667 9.514667 12.842667 14.037333 41.301333 14.037334h432.085334a48 48 0 0 1 0 96H272.213333c-63.445333 0-107.264-23.338667-128.64-70.314667-14.08-31.146667-16.085333-56.490667-15.488-124.330667 0.128-10.325333 0.128-15.36 0.128-21.333333v-336.042667l-0.128-21.333333c-0.597333-67.84 1.365333-93.226667 15.488-124.330667C164.906667 23.338667 208.768 0 272.213333 0h432.085334a48 48 0 1 1 0 96z m-5.077334 470.4a39.338667 39.338667 0 0 0 27.306667-11.136l144.768-144.384c7.253333-7.296 11.52-17.28 11.52-27.264a38.4 38.4 0 0 0-11.52-27.264l-145.152-143.232a38.4 38.4 0 0 0-54.528 0.384 38.4 38.4 0 0 0 0.341333 54.528l78.890667 77.568h-296.234667a38.272 38.272 0 0 0-38.4 38.4c0 21.12 16.896 38.4 38.4 38.4h295.850667l-78.506667 77.952a38.4 38.4 0 0 0 0 54.528 37.461333 37.461333 0 0 0 27.306667 11.52z"  horiz-adv-x="1024" />
      
      <glyph glyph-name="icon-xingqiushezhi" unicode="&#58936;" d="M951.7056 467.2a23.7056 23.7056 0 0 1-0.7168 4.1984v0.8192l-0.4096 2.2016c-7.0656 34.56-29.952 56.832-58.4704 56.832h-4.7104c-48.64 0-88.0128 39.6288-88.0128 88.064 0 11.1616 5.2224 27.0848 7.424 32.6656 13.824 32.256-0.9216 68.9152-35.0208 87.6032L664.576 800.3072l-2.048 0.7168c-7.9872 2.56-17.2544 5.632-27.648 5.632a81.92 81.92 0 0 1-54.7328-22.4768c-16.896-16.6912-51.2-41.5744-71.5776-41.5744-20.3264 0-54.7328 24.7808-71.6288 41.5744a78.5408 78.5408 0 0 1-54.6816 22.528 83.968 83.968 0 0 1-27.6992-5.6832l-1.792-0.7168L240.128 739.328l-0.6656-0.3584c-27.2896-17.1008-38.4-56.32-24.5248-87.3984l0.2048-0.4096 0.2048-0.4096c2.2016-4.9152 9.0112-21.504 9.0112-35.9936 0-48.64-39.6288-88.0128-88.0128-88.0128h-4.7104c-29.7984 0-52.0704-22.016-58.4704-57.344l-0.4096-1.9456v-0.7168c0-1.024-0.4096-2.4064-0.7168-4.1984-2.5088-15.104-8.4992-50.688-8.4992-79.7696 0-29.1328 5.888-64.7168 8.4992-79.8208a24.064 24.064 0 0 1 0.7168-4.1984v-0.8192l0.4096-2.2016c7.0656-34.56 30.0032-56.8832 58.4704-56.8832h2.4064c48.64 0 88.0128-39.5776 88.0128-88.0128 0-11.1616-5.2224-27.0848-7.424-32.6656-13.312-30.3104-0.6656-69.2224 28.672-88.832l0.8704-0.4096 105.984-58.9824 1.9968-0.7168c7.9872-2.56 17.1008-5.632 27.4944-5.632 22.2208 0 42.1888 8.448 54.6816 22.4768 1.2288 0.8704 2.4064 2.048 3.84 3.2768 12.8 11.2128 47.1552 40.8064 69.888 40.8064 16.896 0 45.2096-17.7152 73.728-46.1824 14.336-14.2336 34.304-22.528 54.6816-22.528 13.824 0 23.9616 3.7888 35.584 9.5232l0.4096 0.1536 108.6976 60.1088 0.4096 0.4096c27.2896 17.1008 38.4 56.32 24.4736 87.3984l-0.2048 0.4096-0.2048 0.4096c-0.2048 0.1024-8.704 17.8176-7.0656 33.6896l0.2048 1.024v1.024c0 48.5376 39.5776 87.9616 87.9616 87.9616h5.0176c29.7984 0 52.1216 22.016 58.5216 57.2928l0.3584 1.9968v0.7168l0.7168 3.584c2.56 14.6944 8.6016 48.9984 8.6016 80.384 0.2048 29.0304-5.6832 64.512-8.2944 79.616z m-440.0128-222.4128a139.1616 139.1616 0 1 0-0.0512 278.3744 139.1616 139.1616 0 0 0 0.0512-278.3744z"  horiz-adv-x="1024" />
      
    </font>
</defs>
</svg>
